<?xml version="1.0" encoding="UTF-8" standalone="no"?>
<svg
   width="318.98358"
   height="511.25238"
   viewBox="-97 0 318.98358 511.25238"
   version="1.1"
   id="svg4"
   sodipodi:docname="patrol.svg"
   inkscape:version="1.1.2 (b8e25be833, 2022-02-05)"
   xmlns:inkscape="http://www.inkscape.org/namespaces/inkscape"
   xmlns:sodipodi="http://sodipodi.sourceforge.net/DTD/sodipodi-0.dtd"
   xmlns="http://www.w3.org/2000/svg"
   xmlns:svg="http://www.w3.org/2000/svg">
  <defs
     id="defs8" />
  <sodipodi:namedview
     id="namedview6"
     pagecolor="#ffffff"
     bordercolor="#666666"
     borderopacity="1.0"
     inkscape:pageshadow="2"
     inkscape:pageopacity="0.0"
     inkscape:pagecheckerboard="0"
     showgrid="false"
     inkscape:zoom="0.80371094"
     inkscape:cx="110.11422"
     inkscape:cy="257.55529"
     inkscape:window-width="1280"
     inkscape:window-height="953"
     inkscape:window-x="-1288"
     inkscape:window-y="57"
     inkscape:window-maximized="1"
     inkscape:current-layer="svg4" />
  <path
     fill="currentColor"
     d="m -28.178162,394.263 21.259,-49.604 51.65,51.65 -16.93,34.695 c -1.613,3.306 -3.784,6.309 -6.418,8.877 l -63.912,62.324 c -12.504,12.193 -32.56,12.023 -44.961,-0.275 -12.626998,-12.523 -12.707998,-33.027 -0.073,-45.543 l 52.492,-51.994 c 2.929,-2.901 5.269,-6.341 6.893,-10.13 z m 25.076,-180.83 26.489,-10.52 -18.105,82.627 c -1.075,4.907 0.217,10.035 3.489,13.846 l 0.28,0.326 53.312,60.288 -0.167,0.517 0.224,-0.46 32.816,44.244 c 2.456,3.31 4.249,7.065 5.280002,11.056 l 18.488,71.534 c 4.45,17.218 22.205,27.473 39.384,22.87 16.869,-4.52 27.116,-21.762 22.878,-38.705 l -21.323,-85.252 c -1.111,-4.444 -3.163,-8.597 -6.018,-12.179 l -54.380002,-68.24 16.859002,-65.748 9.711,25.748 c 2.123,5.629 5.789,10.546 10.579,14.186 l 33.912,25.773 c 14.026,10.66 34.04,7.965 44.762,-6.013 10.783,-14.057 8.104,-34.213 -5.99,-44.947 l -25.107,-19.123 c -4.523,-3.445 -8.047,-8.033 -10.208,-13.292 l -21.681,-52.748 c -2.806,-6.826 -7.906,-12.036 -14.053,-15.086 l 0.034,-0.135 c 0,0 -25.696,-17.436 -44.500002,-22.5 -19.553,-5.265 -50.639,-1.941 -54.17,-1.538 -3.94,-0.014 -7.947,0.704 -11.834,2.238 l -72.866,28.762 c -1.72,0.679 -3.217,1.821 -4.327,3.299 l -33.134,44.146 c -10.593,14.114 -7.735,34.159 6.357,44.782 14.112,10.639 34.204,7.844 44.842,-6.268 l 21.296,-28.249 c 1.767,-2.343 4.144,-4.155 6.871,-5.239 z M 102.36284,112 c 30.928,0 56,-25.072 56,-56 0,-30.928 -25.072,-56 -56,-56 -30.928002,0 -56.000002,25.072 -56.000002,56 0,30.928 25.072,56 56.000002,56 z"
     id="path2" />
</svg>
