<?xml version="1.0" encoding="UTF-8" standalone="no"?>
<!-- Created with Inkscape (http://www.inkscape.org/) -->

<svg
   width="100mm"
   height="100mm"
   viewBox="0 0 100 100"
   version="1.1"
   id="svg5"
   inkscape:version="1.1.2 (b8e25be833, 2022-02-05)"
   sodipodi:docname="donut.svg"
   xmlns:inkscape="http://www.inkscape.org/namespaces/inkscape"
   xmlns:sodipodi="http://sodipodi.sourceforge.net/DTD/sodipodi-0.dtd"
   xmlns="http://www.w3.org/2000/svg"
   xmlns:svg="http://www.w3.org/2000/svg">
  <sodipodi:namedview
     id="namedview7"
     pagecolor="#ffffff"
     bordercolor="#666666"
     borderopacity="1.0"
     inkscape:pageshadow="2"
     inkscape:pageopacity="0.0"
     inkscape:pagecheckerboard="0"
     inkscape:document-units="mm"
     showgrid="false"
     inkscape:zoom="0.733172"
     inkscape:cx="396.22353"
     inkscape:cy="234.59707"
     inkscape:window-width="1920"
     inkscape:window-height="1009"
     inkscape:window-x="-8"
     inkscape:window-y="-8"
     inkscape:window-maximized="1"
     inkscape:current-layer="layer1" />
  <defs
     id="defs2" />
  <g
     inkscape:label="Layer 1"
     inkscape:groupmode="layer"
     id="layer1">
    <path
       id="path1302"
       style="opacity:1;fill:#ff9955;stroke-width:14.5714;stroke-linecap:round"
       d="M 188.97656,7.5585938 A 181.41732,181.41732 0 0 0 7.5585938,188.97656 181.41732,181.41732 0 0 0 188.97656,370.39453 181.41732,181.41732 0 0 0 370.39453,188.97656 181.41732,181.41732 0 0 0 188.97656,7.5585938 Z m 0,86.9296872 a 94.488189,94.488189 0 0 1 2.4336,0.03125 94.488189,94.488189 0 0 1 2.42968,0.09375 94.488189,94.488189 0 0 1 2.42774,0.15625 94.488189,94.488189 0 0 1 2.42383,0.21875 94.488189,94.488189 0 0 1 2.41797,0.28125 94.488189,94.488189 0 0 1 2.4082,0.34375 94.488189,94.488189 0 0 1 2.39844,0.40625 94.488189,94.488189 0 0 1 2.38867,0.466797 94.488189,94.488189 0 0 1 2.375,0.527344 94.488189,94.488189 0 0 1 2.35937,0.589844 94.488189,94.488189 0 0 1 2.34571,0.65039 94.488189,94.488189 0 0 1 2.32617,0.708985 94.488189,94.488189 0 0 1 2.30859,0.769531 94.488189,94.488189 0 0 1 2.28711,0.830078 94.488189,94.488189 0 0 1 2.26563,0.88672 94.488189,94.488189 0 0 1 2.24218,0.94531 94.488189,94.488189 0 0 1 2.2168,1.00391 94.488189,94.488189 0 0 1 2.18945,1.05859 94.488189,94.488189 0 0 1 2.16211,1.11719 94.488189,94.488189 0 0 1 2.13281,1.16992 94.488189,94.488189 0 0 1 2.10352,1.22656 94.488189,94.488189 0 0 1 2.06836,1.2793 94.488189,94.488189 0 0 1 2.03711,1.33203 94.488189,94.488189 0 0 1 2,1.38477 94.488189,94.488189 0 0 1 1.96484,1.43359 94.488189,94.488189 0 0 1 1.92774,1.48633 94.488189,94.488189 0 0 1 1.88672,1.5332 94.488189,94.488189 0 0 1 1.84961,1.58399 94.488189,94.488189 0 0 1 1.80664,1.6289 94.488189,94.488189 0 0 1 1.76367,1.67578 94.488189,94.488189 0 0 1 1.7207,1.72071 94.488189,94.488189 0 0 1 1.67578,1.76367 94.488189,94.488189 0 0 1 1.62891,1.80664 94.488189,94.488189 0 0 1 1.58203,1.84766 94.488189,94.488189 0 0 1 1.53516,1.88867 94.488189,94.488189 0 0 1 1.48437,1.92773 94.488189,94.488189 0 0 1 1.43555,1.96485 94.488189,94.488189 0 0 1 1.38476,2 94.488189,94.488189 0 0 1 1.33203,2.0371 94.488189,94.488189 0 0 1 1.2793,2.06836 94.488189,94.488189 0 0 1 1.22656,2.10157 94.488189,94.488189 0 0 1 1.16993,2.13281 94.488189,94.488189 0 0 1 1.11523,2.16211 94.488189,94.488189 0 0 1 1.06055,2.19141 94.488189,94.488189 0 0 1 1.00195,2.21679 94.488189,94.488189 0 0 1 0.94727,2.24219 94.488189,94.488189 0 0 1 0.88671,2.26367 94.488189,94.488189 0 0 1 0.82813,2.28906 94.488189,94.488189 0 0 1 0.76953,2.30664 94.488189,94.488189 0 0 1 0.71094,2.32813 94.488189,94.488189 0 0 1 0.65039,2.34375 94.488189,94.488189 0 0 1 0.58789,2.36133 94.488189,94.488189 0 0 1 0.5293,2.375 94.488189,94.488189 0 0 1 0.46679,2.38867 94.488189,94.488189 0 0 1 0.40625,2.39844 94.488189,94.488189 0 0 1 0.3418,2.4082 94.488189,94.488189 0 0 1 0.28125,2.41797 94.488189,94.488189 0 0 1 0.2207,2.42187 94.488189,94.488189 0 0 1 0.15625,2.42774 94.488189,94.488189 0 0 1 0.0937,2.43164 94.488189,94.488189 0 0 1 0.0312,2.43359 94.488189,94.488189 0 0 1 -0.26367,7.06055 94.488189,94.488189 0 0 1 -0.79101,7.02148 94.488189,94.488189 0 0 1 -1.31446,6.94336 94.488189,94.488189 0 0 1 -1.82812,6.82617 94.488189,94.488189 0 0 1 -2.33399,6.66797 94.488189,94.488189 0 0 1 -2.82617,6.47657 94.488189,94.488189 0 0 1 -3.30273,6.24804 94.488189,94.488189 0 0 1 -3.75781,5.98242 94.488189,94.488189 0 0 1 -4.19727,5.68555 94.488189,94.488189 0 0 1 -4.60938,5.35547 94.488189,94.488189 0 0 1 -4.99609,4.99609 94.488189,94.488189 0 0 1 -5.35547,4.60938 94.488189,94.488189 0 0 1 -5.68555,4.19727 94.488189,94.488189 0 0 1 -5.98242,3.75781 94.488189,94.488189 0 0 1 -6.24804,3.30273 94.488189,94.488189 0 0 1 -6.47657,2.82617 94.488189,94.488189 0 0 1 -6.66797,2.33399 94.488189,94.488189 0 0 1 -6.82617,1.82812 94.488189,94.488189 0 0 1 -6.94336,1.31446 94.488189,94.488189 0 0 1 -7.02148,0.79101 94.488189,94.488189 0 0 1 -7.06055,0.26367 94.488189,94.488189 0 0 1 -7.06054,-0.26367 94.488189,94.488189 0 0 1 -7.02149,-0.79101 94.488189,94.488189 0 0 1 -6.94336,-1.31446 94.488189,94.488189 0 0 1 -6.82617,-1.82812 94.488189,94.488189 0 0 1 -6.66992,-2.33399 94.488189,94.488189 0 0 1 -6.47656,-2.82617 94.488189,94.488189 0 0 1 -6.2461,-3.30273 94.488189,94.488189 0 0 1 -5.98242,-3.75781 94.488189,94.488189 0 0 1 -5.68555,-4.19727 94.488189,94.488189 0 0 1 -5.35547,-4.60938 94.488189,94.488189 0 0 1 -4.99804,-4.99609 94.488189,94.488189 0 0 1 -4.60938,-5.35547 94.488189,94.488189 0 0 1 -4.19531,-5.68555 94.488189,94.488189 0 0 1 -3.75977,-5.98242 94.488189,94.488189 0 0 1 -3.30078,-6.24804 94.488189,94.488189 0 0 1 -2.82617,-6.47657 94.488189,94.488189 0 0 1 -2.333983,-6.66797 94.488189,94.488189 0 0 1 -1.828125,-6.82617 94.488189,94.488189 0 0 1 -1.314453,-6.94336 94.488189,94.488189 0 0 1 -0.791016,-7.02148 94.488189,94.488189 0 0 1 -0.263672,-7.06055 94.488189,94.488189 0 0 1 0.263672,-7.06054 94.488189,94.488189 0 0 1 0.791016,-7.02149 94.488189,94.488189 0 0 1 1.314453,-6.94336 94.488189,94.488189 0 0 1 1.828125,-6.82617 94.488189,94.488189 0 0 1 2.333983,-6.66992 94.488189,94.488189 0 0 1 2.82617,-6.47656 94.488189,94.488189 0 0 1 3.30078,-6.2461 94.488189,94.488189 0 0 1 3.75977,-5.98242 94.488189,94.488189 0 0 1 4.19531,-5.68555 94.488189,94.488189 0 0 1 4.60938,-5.35547 94.488189,94.488189 0 0 1 4.99804,-4.99804 94.488189,94.488189 0 0 1 5.35547,-4.60938 94.488189,94.488189 0 0 1 5.68555,-4.19531 94.488189,94.488189 0 0 1 5.98242,-3.75977 94.488189,94.488189 0 0 1 6.2461,-3.30078 94.488189,94.488189 0 0 1 6.47656,-2.82617 94.488189,94.488189 0 0 1 6.66992,-2.333983 94.488189,94.488189 0 0 1 6.82617,-1.828125 94.488189,94.488189 0 0 1 6.94336,-1.314453 94.488189,94.488189 0 0 1 7.02149,-0.791016 94.488189,94.488189 0 0 1 7.06054,-0.263672 z"
       transform="scale(0.26458333)" />
    <circle
       style="fill:#ff0000;stroke-width:4.43367;stroke-linecap:round"
       id="path990"
       cx="49.999996"
       cy="50"
       r="6" />
  </g>
</svg>
